<mxfile host="app.diagrams.net" modified="2023-10-10T13:05:04.698Z" agent="Mozilla/5.0 (X11; Ubuntu; Linux x86_64; rv:109.0) Gecko/20100101 Firefox/116.0" etag="44AyyvzID8wwtSu939Q3" version="22.0.4" type="github">
  <diagram name="Página-1" id="txFkV5qtQ6-GotB8eZur">
    <mxGraphModel dx="1364" dy="795" grid="1" gridSize="10" guides="1" tooltips="1" connect="1" arrows="1" fold="1" page="1" pageScale="1" pageWidth="827" pageHeight="1169" math="0" shadow="0">
      <root>
        <mxCell id="0" />
        <mxCell id="1" parent="0" />
        <mxCell id="Tcr9Ncec1bthyELoQFyk-24" value="&lt;div&gt;&lt;br&gt;&lt;/div&gt;&lt;div&gt;&lt;br&gt;&lt;/div&gt;&lt;div&gt;&lt;br&gt;&lt;/div&gt;&lt;div&gt;&lt;br&gt;&lt;/div&gt;&lt;div&gt;&lt;br&gt;&lt;/div&gt;&lt;div&gt;&lt;br&gt;&lt;/div&gt;&lt;div&gt;&lt;br&gt;&lt;/div&gt;&lt;div&gt;&lt;br&gt;&lt;/div&gt;&lt;div&gt;&lt;br&gt;&lt;/div&gt;&lt;div&gt;&lt;br&gt;&lt;/div&gt;&lt;div&gt;&lt;br&gt;&lt;/div&gt;&lt;div&gt;&lt;br&gt;&lt;/div&gt;&lt;div&gt;&lt;br&gt;&lt;/div&gt;&lt;div&gt;&lt;br&gt;&lt;/div&gt;&lt;div&gt;&lt;br&gt;&lt;/div&gt;&lt;div&gt;&lt;br&gt;&lt;/div&gt;&lt;div&gt;&lt;br&gt;&lt;/div&gt;&lt;div&gt;&lt;br&gt;&lt;/div&gt;&lt;div&gt;&lt;br&gt;&lt;/div&gt;&lt;div&gt;&lt;br&gt;&lt;/div&gt;&lt;div&gt;&lt;br&gt;&lt;/div&gt;&lt;div&gt;&lt;br&gt;&lt;/div&gt;&lt;div&gt;&lt;br&gt;&lt;/div&gt;&lt;div&gt;&lt;br&gt;&lt;/div&gt;&lt;div&gt;&lt;br&gt;&lt;/div&gt;&lt;div&gt;&lt;br&gt;&lt;/div&gt;&lt;div&gt;&lt;br&gt;&lt;/div&gt;&lt;div&gt;&lt;br&gt;&lt;/div&gt;&lt;div&gt;&lt;br&gt;&lt;/div&gt;&lt;div&gt;&lt;br&gt;&lt;/div&gt;&lt;div&gt;&lt;br&gt;&lt;/div&gt;&lt;div&gt;&lt;br&gt;&lt;/div&gt;&lt;div&gt;&lt;br&gt;&lt;/div&gt;&lt;div&gt;&lt;br&gt;&lt;/div&gt;&lt;div&gt;&lt;br&gt;&lt;/div&gt;&lt;div&gt;&lt;br&gt;&lt;/div&gt;&lt;div&gt;&lt;br&gt;&lt;/div&gt;&lt;div&gt;&lt;br&gt;&lt;/div&gt;&lt;div&gt;&lt;br&gt;&lt;/div&gt;" style="ellipse;whiteSpace=wrap;html=1;aspect=fixed;" vertex="1" parent="1">
          <mxGeometry x="40" y="60" width="710" height="710" as="geometry" />
        </mxCell>
        <mxCell id="Tcr9Ncec1bthyELoQFyk-23" value="&lt;div&gt;&lt;br&gt;&lt;/div&gt;&lt;div&gt;&lt;br&gt;&lt;/div&gt;&lt;div&gt;&lt;br&gt;&lt;/div&gt;&lt;div&gt;&lt;br&gt;&lt;/div&gt;&lt;div&gt;&lt;br&gt;&lt;/div&gt;&lt;div&gt;&lt;br&gt;&lt;/div&gt;" style="ellipse;whiteSpace=wrap;html=1;aspect=fixed;direction=south;" vertex="1" parent="1">
          <mxGeometry x="110" y="255" width="200" height="200" as="geometry" />
        </mxCell>
        <mxCell id="Tcr9Ncec1bthyELoQFyk-1" value="Controller" style="html=1;whiteSpace=wrap;" vertex="1" parent="1">
          <mxGeometry x="440" y="330" width="110" height="50" as="geometry" />
        </mxCell>
        <mxCell id="Tcr9Ncec1bthyELoQFyk-2" value="Model" style="html=1;whiteSpace=wrap;" vertex="1" parent="1">
          <mxGeometry x="330" y="550" width="110" height="50" as="geometry" />
        </mxCell>
        <mxCell id="Tcr9Ncec1bthyELoQFyk-3" value="Banco de dados" style="shape=datastore;whiteSpace=wrap;html=1;" vertex="1" parent="1">
          <mxGeometry x="590" y="545" width="60" height="60" as="geometry" />
        </mxCell>
        <mxCell id="Tcr9Ncec1bthyELoQFyk-5" value="" style="endArrow=classic;html=1;rounded=0;exitX=0.75;exitY=0;exitDx=0;exitDy=0;entryX=0.75;entryY=1;entryDx=0;entryDy=0;" edge="1" parent="1" source="Tcr9Ncec1bthyELoQFyk-2" target="Tcr9Ncec1bthyELoQFyk-1">
          <mxGeometry width="50" height="50" relative="1" as="geometry">
            <mxPoint x="390" y="440" as="sourcePoint" />
            <mxPoint x="440" y="390" as="targetPoint" />
          </mxGeometry>
        </mxCell>
        <mxCell id="Tcr9Ncec1bthyELoQFyk-6" value="Manda as informações" style="edgeLabel;html=1;align=center;verticalAlign=middle;resizable=0;points=[];" vertex="1" connectable="0" parent="Tcr9Ncec1bthyELoQFyk-5">
          <mxGeometry x="0.1799" y="-4" relative="1" as="geometry">
            <mxPoint x="14" y="-3" as="offset" />
          </mxGeometry>
        </mxCell>
        <mxCell id="Tcr9Ncec1bthyELoQFyk-7" value="" style="endArrow=classic;html=1;rounded=0;exitX=0.25;exitY=1;exitDx=0;exitDy=0;entryX=0.25;entryY=0;entryDx=0;entryDy=0;" edge="1" parent="1" source="Tcr9Ncec1bthyELoQFyk-1" target="Tcr9Ncec1bthyELoQFyk-2">
          <mxGeometry width="50" height="50" relative="1" as="geometry">
            <mxPoint x="390" y="440" as="sourcePoint" />
            <mxPoint x="440" y="390" as="targetPoint" />
          </mxGeometry>
        </mxCell>
        <mxCell id="Tcr9Ncec1bthyELoQFyk-8" value="Requisita informações" style="edgeLabel;html=1;align=center;verticalAlign=middle;resizable=0;points=[];" vertex="1" connectable="0" parent="Tcr9Ncec1bthyELoQFyk-7">
          <mxGeometry x="0.3562" y="-3" relative="1" as="geometry">
            <mxPoint x="-4" y="-32" as="offset" />
          </mxGeometry>
        </mxCell>
        <mxCell id="Tcr9Ncec1bthyELoQFyk-9" value="" style="endArrow=classic;html=1;rounded=0;exitX=0;exitY=0.3;exitDx=0;exitDy=0;entryX=1;entryY=0.25;entryDx=0;entryDy=0;" edge="1" parent="1" source="Tcr9Ncec1bthyELoQFyk-3" target="Tcr9Ncec1bthyELoQFyk-2">
          <mxGeometry width="50" height="50" relative="1" as="geometry">
            <mxPoint x="440" y="660" as="sourcePoint" />
            <mxPoint x="490" y="610" as="targetPoint" />
          </mxGeometry>
        </mxCell>
        <mxCell id="Tcr9Ncec1bthyELoQFyk-12" value="retorna os dados" style="edgeLabel;html=1;align=center;verticalAlign=middle;resizable=0;points=[];" vertex="1" connectable="0" parent="Tcr9Ncec1bthyELoQFyk-9">
          <mxGeometry x="0.1437" y="3" relative="1" as="geometry">
            <mxPoint as="offset" />
          </mxGeometry>
        </mxCell>
        <mxCell id="Tcr9Ncec1bthyELoQFyk-10" value="" style="endArrow=classic;html=1;rounded=0;exitX=1;exitY=1;exitDx=0;exitDy=0;entryX=0.15;entryY=0.95;entryDx=0;entryDy=0;entryPerimeter=0;" edge="1" parent="1" source="Tcr9Ncec1bthyELoQFyk-2" target="Tcr9Ncec1bthyELoQFyk-3">
          <mxGeometry width="50" height="50" relative="1" as="geometry">
            <mxPoint x="450" y="670" as="sourcePoint" />
            <mxPoint x="500" y="620" as="targetPoint" />
          </mxGeometry>
        </mxCell>
        <mxCell id="Tcr9Ncec1bthyELoQFyk-11" value="Pesquisa dos dados" style="edgeLabel;html=1;align=center;verticalAlign=middle;resizable=0;points=[];" vertex="1" connectable="0" parent="Tcr9Ncec1bthyELoQFyk-10">
          <mxGeometry x="-0.3899" y="1" relative="1" as="geometry">
            <mxPoint x="32" y="12" as="offset" />
          </mxGeometry>
        </mxCell>
        <mxCell id="Tcr9Ncec1bthyELoQFyk-13" value="View" style="html=1;whiteSpace=wrap;" vertex="1" parent="1">
          <mxGeometry x="170" y="330" width="110" height="50" as="geometry" />
        </mxCell>
        <mxCell id="Tcr9Ncec1bthyELoQFyk-14" value="" style="endArrow=classic;html=1;rounded=0;exitX=0;exitY=0.75;exitDx=0;exitDy=0;entryX=1;entryY=0.75;entryDx=0;entryDy=0;" edge="1" parent="1" source="Tcr9Ncec1bthyELoQFyk-1" target="Tcr9Ncec1bthyELoQFyk-13">
          <mxGeometry width="50" height="50" relative="1" as="geometry">
            <mxPoint x="390" y="320" as="sourcePoint" />
            <mxPoint x="440" y="270" as="targetPoint" />
          </mxGeometry>
        </mxCell>
        <mxCell id="Tcr9Ncec1bthyELoQFyk-15" value="Renderiza a pagina" style="edgeLabel;html=1;align=center;verticalAlign=middle;resizable=0;points=[];" vertex="1" connectable="0" parent="Tcr9Ncec1bthyELoQFyk-14">
          <mxGeometry x="0.2375" y="3" relative="1" as="geometry">
            <mxPoint x="19" y="12" as="offset" />
          </mxGeometry>
        </mxCell>
        <mxCell id="Tcr9Ncec1bthyELoQFyk-17" value="" style="endArrow=classic;html=1;rounded=0;exitX=1;exitY=0.25;exitDx=0;exitDy=0;entryX=0;entryY=0.25;entryDx=0;entryDy=0;" edge="1" parent="1" source="Tcr9Ncec1bthyELoQFyk-13" target="Tcr9Ncec1bthyELoQFyk-1">
          <mxGeometry width="50" height="50" relative="1" as="geometry">
            <mxPoint x="390" y="320" as="sourcePoint" />
            <mxPoint x="337.5" y="220" as="targetPoint" />
          </mxGeometry>
        </mxCell>
        <mxCell id="Tcr9Ncec1bthyELoQFyk-19" value="&lt;div&gt;Acessa uma rota&lt;/div&gt;&lt;div&gt;que direciona para&lt;br&gt;&lt;/div&gt;" style="edgeLabel;html=1;align=center;verticalAlign=middle;resizable=0;points=[];" vertex="1" connectable="0" parent="Tcr9Ncec1bthyELoQFyk-17">
          <mxGeometry x="0.0466" y="-3" relative="1" as="geometry">
            <mxPoint x="10" y="-3" as="offset" />
          </mxGeometry>
        </mxCell>
        <mxCell id="Tcr9Ncec1bthyELoQFyk-25" value="Aplicação rodando no rasp" style="text;html=1;align=center;verticalAlign=middle;resizable=0;points=[];autosize=1;strokeColor=none;fillColor=none;" vertex="1" parent="1">
          <mxGeometry x="300" y="100" width="170" height="30" as="geometry" />
        </mxCell>
        <mxCell id="Tcr9Ncec1bthyELoQFyk-27" value="&lt;div&gt;Pode ser acessado de&lt;/div&gt;qualquer máquina" style="text;html=1;align=center;verticalAlign=middle;resizable=0;points=[];autosize=1;strokeColor=none;fillColor=none;" vertex="1" parent="1">
          <mxGeometry x="130" y="280" width="140" height="40" as="geometry" />
        </mxCell>
        <mxCell id="Tcr9Ncec1bthyELoQFyk-28" value="&lt;div&gt;HTML&lt;br&gt;&lt;/div&gt;" style="ellipse;whiteSpace=wrap;html=1;aspect=fixed;" vertex="1" parent="1">
          <mxGeometry x="110" y="795" width="170" height="170" as="geometry" />
        </mxCell>
        <mxCell id="Tcr9Ncec1bthyELoQFyk-29" value="PHP" style="ellipse;whiteSpace=wrap;html=1;aspect=fixed;" vertex="1" parent="1">
          <mxGeometry x="320" y="795" width="220" height="220" as="geometry" />
        </mxCell>
        <mxCell id="Tcr9Ncec1bthyELoQFyk-30" value="Laravel" style="ellipse;whiteSpace=wrap;html=1;aspect=fixed;" vertex="1" parent="1">
          <mxGeometry x="420" y="920" width="80" height="80" as="geometry" />
        </mxCell>
        <mxCell id="Tcr9Ncec1bthyELoQFyk-31" value="Laravel" style="ellipse;whiteSpace=wrap;html=1;aspect=fixed;" vertex="1" parent="1">
          <mxGeometry x="170" y="900" width="50" height="50" as="geometry" />
        </mxCell>
        <mxCell id="Tcr9Ncec1bthyELoQFyk-32" value="Mysql" style="ellipse;whiteSpace=wrap;html=1;aspect=fixed;" vertex="1" parent="1">
          <mxGeometry x="570" y="850" width="80" height="80" as="geometry" />
        </mxCell>
        <mxCell id="Tcr9Ncec1bthyELoQFyk-33" value="JavaScript" style="ellipse;whiteSpace=wrap;html=1;aspect=fixed;" vertex="1" parent="1">
          <mxGeometry x="215" y="830" width="60" height="60" as="geometry" />
        </mxCell>
        <mxCell id="Tcr9Ncec1bthyELoQFyk-34" value="Bootstrap" style="ellipse;whiteSpace=wrap;html=1;aspect=fixed;" vertex="1" parent="1">
          <mxGeometry x="150" y="800" width="60" height="60" as="geometry" />
        </mxCell>
      </root>
    </mxGraphModel>
  </diagram>
</mxfile>
